<?xml version="1.0" encoding="UTF-8"?>
<svg width="256px" height="256px" viewBox="0 0 256 256" version="1.1" xmlns="http://www.w3.org/2000/svg" xmlns:xlink="http://www.w3.org/1999/xlink" preserveAspectRatio="xMidYMid">
  <g>
    <path d="M121.01,0 L10,113.007 L53.006,249.671 L190.822,255.999 L245.992,119.326 L121.01,0 Z M121.01,0 L10,113.007 L53.006,249.671 L190.822,255.999 L245.992,119.326 L121.01,0 Z" fill="#092E20"></path>
    <path d="M50.016,128.127 L57.045,117.025 L87.233,117.025 L94.595,128.127 L112.78,128.127 L84.322,83.54 L61.693,83.54 L32.796,128.127 L50.016,128.127 Z M72.319,105.125 L63.257,105.125 L72.237,90.097 L72.319,90.097 L81.296,105.125 L72.319,105.125 Z M150.496,128.127 L150.496,105.622 C150.496,101.091 149.822,97.557 148.474,95.02 C147.125,92.485 145.003,90.59 142.109,89.335 C139.213,88.08 135.276,87.453 130.294,87.453 C127.009,87.453 123.89,87.834 120.938,88.598 C117.985,89.362 115.505,90.335 113.498,91.516 L117.412,101.153 C119.092,100.198 121.019,99.379 123.194,98.696 C125.368,98.014 127.615,97.672 129.935,97.672 C132.828,97.672 134.85,98.187 135.999,99.215 C137.149,100.244 137.724,101.726 137.724,103.66 L137.724,104.487 L127.267,104.487 C121.337,104.487 117.006,105.716 114.273,108.173 C111.54,110.63 110.173,113.877 110.173,117.906 C110.173,121.804 111.576,124.841 114.383,127.018 C117.188,129.195 120.602,130.284 124.622,130.284 C127.762,130.284 130.401,129.797 132.54,128.824 C134.677,127.851 136.322,126.413 137.471,124.511 L137.724,124.511 L140.111,128.127 L150.496,128.127 Z M137.724,115.748 C137.724,117.711 136.979,119.285 135.492,120.47 C134.004,121.654 132.128,122.246 129.866,122.246 C128.215,122.246 126.886,121.872 125.878,121.123 C124.87,120.375 124.367,119.298 124.367,117.896 C124.367,116.523 124.924,115.43 126.04,114.615 C127.155,113.8 128.888,113.394 131.241,113.394 L137.724,113.394 L137.724,115.748 Z M201.891,128.127 L201.891,83.54 L188.287,83.54 L188.287,93.341 L188.033,93.341 C186.722,90.04 184.767,87.595 182.168,86.007 C179.572,84.42 176.554,83.625 173.117,83.625 C167.697,83.625 163.357,85.804 160.097,90.162 C156.837,94.519 155.208,100.455 155.208,107.965 C155.208,115.81 156.904,121.907 160.299,126.258 C163.693,130.608 168.15,132.785 173.673,132.785 C176.932,132.785 179.767,132.002 182.179,130.437 C184.591,128.873 186.49,126.604 187.879,123.629 L188.135,123.629 L188.135,124.253 C188.164,128.834 187.176,132.203 185.172,134.359 C183.167,136.515 180.108,137.594 175.995,137.594 C173.554,137.594 171.203,137.281 168.944,136.657 C166.685,136.033 164.714,135.135 163.034,133.96 L159.119,143.426 C161.08,144.858 163.558,146.017 166.553,146.903 C169.546,147.788 172.775,148.232 176.24,148.232 C183.438,148.232 188.963,146.221 192.817,142.199 C196.67,138.177 198.596,132.33 198.596,124.659 L198.596,83.54 L185.501,83.54 L185.501,118.509 C184.736,120.533 183.54,122.071 181.909,123.121 C180.281,124.172 178.354,124.697 176.129,124.697 C173.324,124.697 171.112,123.513 169.492,121.143 C167.872,118.773 167.063,115.316 167.063,110.775 C167.063,106.381 167.86,103.004 169.455,100.642 C171.049,98.28 173.205,97.1 175.923,97.1 C178.348,97.1 180.37,97.769 181.987,99.108 C183.605,100.446 184.753,102.218 185.428,104.422 L198.596,104.422 C198.308,101.491 197.37,98.775 195.783,96.275 C194.196,93.773 191.967,91.773 189.098,90.274 C186.229,88.775 182.778,88.026 178.745,88.026 L201.891,128.127 Z" fill="#FFFFFD"></path>
  </g>
</svg>
