<?xml version="1.0" encoding="UTF-8" standalone="no"?>
<svg xmlns="http://www.w3.org/2000/svg" width="2500" height="2100" viewBox="0 0 256 215" preserveAspectRatio="xMinYMin meet">
<g fill-rule="evenodd">
<path d="M38.617 173.984h43.11v-3.938h-39.27v-97.386H38.617v101.324z" fill="#000"/>
<path d="M126.016 172.15v-8.698a9.923 9.923 0 0 1-1.847 1.718c-5.604 4.04-12.846 9.494-21.996 9.494-13.233 0-25.555-9.578-25.555-26.55 0-16.89 13.15-24.542 28.78-24.542 6.896 0 11.669 1.465 14.916 2.894v-10.012c-3.008-1.262-9.238-3.091-16.048-3.091-21.355 0-37.432 14.316-37.432 35.6 0 19.588 13.576 34.423 34.02 34.423 10.748 0 17.376-4.09 21.744-7.764v-3.472h3.418z" fill="#000"/>
<path d="M163.538 173.984h41.11v-3.938h-37.24v-35.706h35.804v-3.938h-35.804V68.12h36.176v-3.937h-40.046v109.802z" fill="#000"/>
<path d="M83.314 42.143H57.083V3.79h23.456v3.935H61.04v14.88h18.21v3.872H61.04v15.636h22.274v3.93z" fill="#494949"/>
<path d="M83.314 42.143" fill="#000"/>
<path d="M113.872 42.143h-25.76V3.79h23.482v3.935h-19.524v14.88h18.235v3.872H92.07v15.636h21.803v3.93z" fill="#494949"/>
<path d="M113.872 42.143" fill="#000"/>
<path d="M146.059 42.143h-4.073v-34.5h-16.14v-3.854h36.352v3.854h-16.14v34.5z" fill="#494949"/>
<path d="M169.95 42.143h-3.938V3.79h3.938v38.353zM192.332 42.143V3.79h25.59v3.935h-21.653v14.737h18.995v3.83h-18.995v15.853h-3.937z" fill="#494949"/>
<path d="M192.332 42.143" fill="#000"/>
<path d="M246.566 17.145h-12.307v-3.02h16.245v3.305l-9.147 24.713h-4.147l9.356-25z" fill="#494949"/>
<path d="M128.456 61.699c3.059 0 4.994-1.449 6.273-3.903l17.224-41.013 1.01-2.204h3.728l-6.867 16.045-.773 1.993-.523 1.173 13.278 29.92h-3.953l-11.413-26.328h-.068l-11.153 26.328h-3.817L142.34 29.21l-9.362 22.425-.814 2.148c-1.688 3.512-3.953 4.053-6.707 4.165-1.854 0-2.932-.506-2.932-.506v-3.341s1.095.326 2.203.326c2.767 0 3.817-1.954 4.022-2.459l.405-1.045-10.492-26.342h3.844l9.18 25.193.76 2.834z" fill="#000"/>
<path d="M173.65 61.835h-3.937V23.483h3.938v38.352z" fill="#000"/>
<path d="M203.58 0C177.347.22 158.233 16.113 158.233 32.773c0 15.51 14.912 21.913 19.088 23.393-.581 3.604-2.64 14.667-7.744 28.09-10.089 26.704-16.373 29.338-19.815 30.535h-.6s-3.337-2.355-5.728-6.187c-2.391-3.828-4.857-9.651-4.778-17.891.155-16.375 11.2-31.167 11.2-31.167-8.816 8.734-13.686 19.483-13.686 30.288 0 10.223 2.746 18.963 7.24 25.488-5.893 2.134-10.929 2.915-10.929 2.915 13.177 21.3 34.18 24.845 34.18 24.845.323.036.66.078.984.08l.984-.08s21.004-3.544 34.18-24.846c0 0-5.035-.78-10.928-2.915 4.494-6.525 7.24-15.265 7.24-25.487 0-10.805-4.87-21.554-13.686-30.288 0 0 11.044 14.792 11.2 31.167.078 8.24-2.387 14.063-4.778 17.89-2.392 3.833-5.729 6.189-5.729 6.189h-.599c-3.442-1.197-9.726-3.83-19.815-30.536-2.335-6.17-4.195-12.37-5.585-17.713l-.13-.416c-.535-2.09-.97-4.06-1.323-5.895-.185-.955-.316-1.796-.424-2.489-.045-.302-.084-.578-.119-.83l-.01-.081-.01-.099-.016-.165-.008-.082c-.001-.013-.003-.024-.004-.036l-.004-.039-.002-.01-.001-.01v-.002c0-.001-.002-.014 0 0h.024c-.003-.003-.009-.007-.013-.008l.013.008c4.176-1.48 19.088-7.882 19.088-23.392 0-16.66-19.113-32.552-45.347-32.772zm0 9.191c8.483 0 15.36 6.875 15.36 15.359 0 8.483-6.877 15.361-15.36 15.361-8.483 0-15.36-6.878-15.36-15.36 0-8.485 6.877-15.36 15.36-15.36z" fill="#2BA0D3"/>
</g>
</svg>
