<?xml version="1.0" encoding="UTF-8"?>
<svg width="256px" height="256px" viewBox="0 0 256 256" version="1.1" xmlns="http://www.w3.org/2000/svg" preserveAspectRatio="xMidYMid">
    <title>Express</title>
    <g>
        <path d="M128,0 C57.308,0 0,57.308 0,128 C0,198.692 57.308,256 128,256 C198.692,256 256,198.692 256,128 C256,57.308 198.692,0 128,0 Z M128,56 C137.441,56 144,63.059 144,72 C144,80.941 136.941,88 128,88 C119.059,88 112,80.941 112,72 C112,63.059 118.559,56 128,56 Z M160.127,178.764 C142.687,193.405 109.312,193.405 91.873,178.764 C89.11,176.509 88.036,173.308 89.612,170.987 C91.344,168.519 95.543,168.727 98.815,170.539 C111.034,179.04 136.016,181.102 153.184,170.539 C156.458,168.727 160.656,168.519 162.388,170.987 C163.962,173.308 162.89,176.509 160.127,178.764 Z M162.502,139.81 C144.87,154.584 111.129,154.584 93.498,139.81 C90.747,137.566 89.644,134.392 91.228,132.059 C92.962,129.628 97.145,129.836 100.405,131.635 C113.127,140.166 142.473,142.404 155.595,131.635 C158.856,129.836 163.037,129.628 164.773,132.059 C166.356,134.392 165.253,137.566 162.502,139.81 Z M174,117 L158,117 L158,103 L142,103 L142,117 L126,117 L126,133 L142,133 L142,149 L158,149 L158,133 L174,133 L174,117 Z" fill="#000000"></path>
    </g>
</svg>
