<?xml version="1.0" encoding="UTF-8" standalone="no"?>
<svg xmlns="http://www.w3.org/2000/svg" viewBox="0 0 512 512">
  <path fill="#66CCFF" d="M216.12 249.93a15.606 15.606 0 0 1 11.9-15.196l223.265-55.403c5.453-1.365 8.773-6.912 7.408-12.365a9.988 9.988 0 0 0-5.198-6.332L226.167 45.047c-5.848-2.7-10.838-1.5-15.607 4.199L95.7 190.006c-3.315 4.157-2.63 10.228 1.527 13.543a9.89 9.89 0 0 0 6.895 2.15L216.12 249.934z"/>
  <path fill="#3399FF" d="M104.12 376.354a15.607 15.607 0 0 1 0-22.792l94.042-94.042 135.084 85.597c4.95 3.15 11.552 1.698 14.702-3.252a10.062 10.062 0 0 0 1.425-7.559L318.729 108.513c-1.125-6.187 2.508-10.537 9.147-10.987l141.793-8.146c5.305-.3 9.881 3.745 10.181 9.05a9.895 9.895 0 0 1-1.983 6.75l-157.05 195.479a15.608 15.608 0 0 1-21.675 3.043L198.172 248.59v116.022c0 4.56-3.695 8.255-8.255 8.255a8.253 8.253 0 0 1-5.985-2.575l-79.812-93.938z"/>
  <path fill="#0066CC" d="M112.385 385.912c-2.888-2.177-5.158-4.448-7.065-6.75l-1.2-1.5V190.006c0-6.487 3.622-10.387 9.147-9.937l111.998 44.693a15.606 15.606 0 0 1 8.551 20.925 15.563 15.563 0 0 1-7.865 8.055L127.086 296.1c-3.12 1.312-5.466 4.037-6.39 7.368a11.53 11.53 0 0 0 1.323 8.902l48.074 85.747c2.55 4.507 1.658 10.17-2.205 13.693-3.89 3.57-9.81 3.748-14.032.54l-41.47-26.438z"/>
</svg>
