<?xml version="1.0" encoding="UTF-8" standalone="no"?>
<svg xmlns="http://www.w3.org/2000/svg" viewBox="0 0 512 512">
  <path fill="#27ae60" d="M505 303.5c-2.5-8.75-4.5-18-6.5-27.25-3.25-15.25-7.25-30.75-12.5-46-4.5-12.5-9-24.75-15.5-37.25-8.5-16.5-18.75-32.5-31-46.25C421.25 125.75 400 108 376.5 93.5c-38-23.25-81.5-34.75-126.75-34.75-31.75 0-63.25 6.5-92.5 19.25-18.25 7.75-35 17.5-51.25 29-13.25 9.5-25.25 20-36.25 31.75-8.5 9-16.5 18.75-23.75 29-14 19.75-25.75 41.25-34.75 63.75-7.75 19-13.75 38.75-18.25 58.75-1.75 7.25-2.75 14.75-4.25 22-1 5.25-1.75 10.5-3 15.75-1.5 6.75-1.25 13.75-1.75 20.5-1 22.25 1.25 43.5 7.5 64.75 3 10.25 7 20 11.75 29.75 8 16.5 17.75 31.5 30.5 45 13.5 14.25 28.75 26.25 45.75 36 36.25 21 77.25 32.5 119.75 32.25 19.5-.25 38.75-3.25 57.25-9 3.75-1.25 7.5-2.25 11-4 9.5-4.5 18.5-9.5 27.5-15 8.25-5 15.75-10.5 23.5-16.5 30.25-23.25 54.75-53.25 71.5-89.5 5.75-12.5 10.5-25.5 14.25-38.75 3-10 5.75-20.25 8-30.5 3.25-14 5.25-28.25 7.5-42.5.25-2.75.75-5.5 1.75-8.25 1-2.75-.25-6-2-8.5zm-56.75 34.75c-1.5 1.25-3.5 2-5.5 2.25-3.5 0-6-3-5.25-6.5 1-5.25 1-10.5 1.5-15.75.25-3.75.25-7.5.25-11.25v-6.5c0-6.25-.5-12.5-1-18.75-.5-6.25-1.75-12.5-2.5-18.75-.5-2.75-1.25-5.5-1.75-8-.75-3-1.75-6-2.75-9-1.75-5.25-4-10.25-6.25-15.25-2.5-5.75-5.75-11-8.75-16.25-3.25-5.5-7-10.75-11-15.75-1.75-2.25-3.75-4.25-5.75-6.75-2.25-3-4.75-5.75-7.25-8.5-2.75-2.75-5.5-5.25-8.5-7.75-2.75-2.5-5.75-4.75-8.75-6.75-2.5-1.75-5-3.5-7.75-5-2-1.25-4-2.25-6-3.25-14.25-7-29.25-12.5-44.75-16-12.25-2.75-24.5-3.5-37-3.75-9.5-.25-19 0-28.5 1-4 .5-8 1-12 2-4.25.75-8.25 2-12.25 3.5-3.5 1.25-6.75 2.75-10 4.25-3 1.5-5.75 3-8.5 4.75-3 2.25-6 4.75-8.75 7.5-2.25 2.25-4.5 4.75-6.25 7.25-1.75 2.25-3.5 4.5-5 7-1.25 2.25-2.25 4.75-3.25 7.25-1 2.25-1.75 4.75-2.5 7.25-.5 1.25-.75 2.75-1 4.25-.25 1.25-.25 2.75-.25 4.25v8c0 1.25.5 2.25 1 3.5 1.25 2 3 3.75 5.25 4.25 1.75.5 3.25 0 5-.75 2-1 3.75-2.25 5.25-3.75 2-2 3.75-4 5.25-6.25 1.5-2.25 3-4.25 4.75-6.5 1.75-2.25 3.75-4.25 6-6 1.5-1.25 3.25-2.25 5-3.25 4.25-2.25 8.75-3.75 13.25-4.75 5.25-1.25 10.5-1.5 15.75-1.25 5.75.25 11.5.75 17.25 1.75 4.5.75 9 1.5 13.25 3 5.5 1.75 10.5 4.25 15.25 7.5 2.75 1.75 5.25 3.75 7.75 5.75 3 2.5 5.75 5.25 8.25 8.25 4.75 5.75 8.5 12 10.25 19.25.5 2.75.75 5.5.75 8.25.25 9.75-3.75 18.25-9.25 26-4.25 6-9.5 10.75-15.5 15-6.5 4.5-13.25 8-20.25 11.25-4.25 1.75-8.5 3.25-12.75 5-8.25 3-16.5 5.75-24.75 9-3.5 1.5-6.75 3.25-10.25 5-6.75 3.75-13.5 7.75-19.5 12.5-7 5.25-13 11.5-17.5 18.75-3.75 6-5.75 12.75-7 19.75-.75 3.75-.5 7.75-.5 11.5 0 2 .25 4 .5 6 .5 3.5 1.25 7 2.25 10.5 1 4 2.5 8 4.5 11.5 3 6 7 11.25 11.5 16 5.5 5.75 11.5 10.5 18.25 14.5 5.75 3.5 11.75 6.25 18.25 8.25 2.5.75 5 1.25 7.75 2 3.75.75 7.75 1.25 11.75 1.25 7.25 0 14.5-.75 21.5-2.25 6.75-1.5 13.25-3.5 19.5-6 7.5-3 14.5-7.25 21-12 6.75-5.25 12.5-11.25 17.75-18 4.5-6 8-12.75 10.75-19.75 2.5-6.5 4.25-13.25 5-20.25.5-5.75.5-11.5 0-17.25 0-.25-.25-.75-.25-1 0-.5-.25-.75-.25-1.25-.25-1.25-.25-2.5-.5-3.75-.25-1.25-.5-2.75-.75-4-.5-2.25-1-4.5-1.75-6.5-.75-2-1.5-4-2.5-6-1.5-3.25-3-6.5-5-9.5-1.75-2.5-3.75-5-6-7.25-2.75-2.75-5.75-5.25-9-7.5-6.25-4.75-13.25-8.5-20.5-11.5-7.75-3-15.75-5.25-24-6.75-8.75-1.75-17.5-2.5-26.25-2.75-9.25-.25-18.25.25-27.25 1.75-7 1-13.75 2.75-20.5 4.5-10 2.75-20 5.75-29.5 9.75-3.25 1.5-6.5 3.25-9.5 5-6.75 3.75-13 8.25-19 13-6.5 5-12.5 10.5-17.5 16.75-2.75 3.5-5.25 7.25-7.5 11-3 5-5.25 10.5-6.75 16-.5 1.75-.75 3.75-1 5.5-.25 2-.25 4.25-.25 6.25 0 4 .5 7.75 1.25 11.5 1.25 6 3.5 11.75 6.25 17 3 5.75 6.75 11 11.25 15.75 1.25 1.25 2.5 2.5 4 3.5 2.5 1.75 5 3.5 7.75 4.75 9.25 4.25 19.25 6 29.5 5.75 6.5-.25 12.75-1.25 19-3 5.75-1.75 11.25-4.25 16.25-7.5 4-2.5 7.5-5.75 10.75-9.25 3-3.25 5.75-6.75 8.25-10.5 2.75-4.25 5-8.75 7.25-13.25 2-4.25 3.75-8.75 5.25-13.5.75-2 1.25-4 2-6 .5-1 .75-2.25 1-3.25.25-.5.25-1.25.5-1.75.25-1 .5-2 .5-3 .25-2.25.5-4.25.75-6.5v-7c0-4.75-1.25-9.25-3.25-13.5-3.5-6.75-9.25-11.25-16-14.5-3.25-1.5-6.75-2.75-10.25-3.25-4.75-.75-9.5-.75-14-.25-4 .5-8 1.75-11.75 3-6.5 2.25-12 6-17 10.5-3 2.75-5.5 5.75-7.5 9.25-1.5 2.5-2.5 5.25-3.25 8-.25 1-.25 2.25-.25 3.25v2.75c0 1 .25 1.75.5 2.75 2.25 6.25 8.75 9.25 14.25 6.25 1.75-.75 3.5-2 4.5-3.5 1.5-2 2.25-4.25 2-6.75-.25-1.75-.25-3 .25-4.75.5-2.5 1.75-4.5 3.75-5.75 2.75-1.75 5.75-1.75 8.5-.75 3 1.5 4.75 4 5 7.25.25 3 .25 6-.25 9-.25 2-.75 4.25-1.25 6.25-.5 1.75-1.25 3.5-2 5.25-.5 1.25-1 2.25-1.75 3.5-.25.75-.75 1.25-1 2-.75 1.75-1.75 3.5-2.5 5.25-1 1.75-2.25 3.5-3.5 5.25-1.25 1.5-2.5 3-4 4.25-1.25 1.25-2.75 2.5-4.25 3.5-3.75 2.5-7.75 4-12 4.5-5.25.75-10 0-14.5-2.5-3.75-2-6.5-5-8.25-8.75-1.25-3-2-6.25-2-9.5v-2.25c0-.75 0-1.5.25-2.25.25-1.5.75-3 1.25-4.5 1.75-4.5 4.25-8.5 7.25-12.25 2.75-3.5 6-6.5 9.5-9.5 6-5 12.75-9.25 19.75-12.75 8-4 16.25-7.5 24.75-10.25 9.25-3 18.75-5.25 28.25-7.5 4.5-1 9-1.75 13.5-2.25 8.5-1 17.25-1.25 25.75-1 8.25.25 16.5 1.25 24.5 3 11.75 2.5 22.75 7 32.75 13.25 5.75 3.5 10.75 8 15.25 13 4.25 5 7.75 10.25 9.75 16.5.75 2.25 1 4.75 1.25 7.25.25 3.25.25 6.25.25 9.5 0 8.75-.5 17.5-1.25 26.25-.75 10-2.25 20-4 29.75-.75 3.75-1.5 7.5-2.5 11.25s-2 7.5-3 11.25c-3.5 12-8.25 23.5-14.5 34.5-3 5.5-6.5 10.75-10.25 15.75-3.5 4.5-7.25 9-11.25 13-7.25 7.5-15 14.25-23.5 20.25-8.25 5.5-16.75 10.25-26 14-2.5 1-5.25 2-8 2.75-3 1-6.25 1.75-9.5 2.25-5.5.75-11 1.25-16.5 1.25-8.75.25-17.25-1-25.75-3-5.5-1.25-10.75-3-16-5-9.75-3.75-18.75-9-26.75-15.5-8.25-6.75-15.25-14.5-20.75-23.5-2.5-4-4.75-8.25-6.25-12.75-1.25-3.25-2-6.5-2.5-9.75-.25-1.75-.25-3.5-.25-5.25v-4.5c.5-4.75 1.5-9.25 3.25-13.5 2-4.5 4.75-8.5 8-12.25 2.75-3 5.75-5.5 9-8 5.25-3.75 10.75-7 16.5-9.75 3-1.5 6-2.75 9.25-3.75 1.75-.75 3.75-1.25 5.5-1.75 1-.25 2-.25 3-.5 1-.25 2-.25 3-.25h4c.5 0 1 0 1.5.25.5 0 .75.25 1.25.25.5 0 1 .25 1.5.5 4.25 1 7.25 3.75 9.5 7.5.75 1.25 1.25 2.75 1.5 4.25.25 2 0 4-.75 6-.5 1.25-1 2.5-1.75 3.5-.5.75-1 1.5-1.5 2.25-2 2.5-4.25 4.75-6.75 6.5-4.75 3.75-10 6.75-15.25 9.25-2.75 1.25-5.5 2.5-8.25 3.75-2 .75-4 1.5-6.25 2-1.75.5-3.5.75-5.5.75-3.25 0-6.5-.5-9.5-1.75-6.25-2.25-10.5-6.25-13.25-12-.75-1.75-1.25-3.5-1.5-5.5-.25-2-.25-4 0-6 .5-3.75 1.75-7.25 3.5-10.5 1.75-3 4.25-5.75 7-8 3.25-2.75 7-4.5 11-5.75 3-.75 6-1.25 9.25-1.25 4.25 0 8.25.75 12 2.75 4 2.25 7 5.5 8.75 9.75 1 2.25 1.25 4.75 1.25 7.25 0 1-.25 2-.5 3-.25 1-.75 2.25-1.25 3.25-.75 1.25-1.75 2.5-2.75 3.25-1.25 1-2.5 1.5-4 1.75-1.5 0-2.75 0-4-.25-2.5-.5-4.5-2-5.75-4.25-.5-.75-.75-1.75-1-2.75V278c0-1 .25-2 .5-3 .5-1.75 1.25-3.5 2.75-4.75 1.75-1.5 3.75-2.25 6-2.25 2 0 3.75.75 5.25 2 1.25 1.25 2 2.75 2 4.5v.25c0 .25-.25.5-.25.75 0 .5-.25 1-.5 1.5-.25.5-.5 1.25-.75 1.75-.5.75-1 1.25-1.5 2-.5.5-1 1-1.75 1.5-1.25.75-2.75 1-4.25.5-2-.5-3.75-2-4-4.25v-1.5c0-.75 0-1.25.25-2 .25-.5.5-1 .75-1.5.5-.5 1-1 1.5-1.25.75-.5 1.75-.25 2.5 0 .25 0 .5.25.75.25.5 0 .75.25 1 .5.25.25.25.5.25.75 0 .5-.25 1-.75 1.25-.25.25-.75.25-1 .5-.25 0-.25.25-.5.25-.25.75.25 1.5 1 1.75h.25c.5 0 .75-.25 1-.5.25-.25.5-.25.5-.5v-.25c.25-.25.25-.75.25-1.25V280s0-.25-.25-.5c-.25-.25-.5-.25-.75-.5-.25 0-.5-.25-.75-.25h-.25c-.25 0-.5.25-.75.25h-.5c-.5 0-.75.25-1.25.5-.5.5-1 1-1.25 1.75 0 .25-.25.5-.25.75v.5c0 .5.25.75.5 1.25.25.25.75.5 1.25.75.5 0 1 0 1.5-.25.75-.25 1.25-.75 1.5-1.25.25-.25.5-.75.5-1 0-.25-.25-.5-.5-.75-.25 0-.25-.25-.5-.25.25-.5.5-.5.75-.75.5-.25.75-.5 1.25-.5.5-.25 1-.25 1.5-.25.75 0 1.25 0 1.75.25.75.5 1.5 1 2 1.5.75.75 1.25 1.75 1.5 2.75.25.75.25 1.75.25 2.5 0 1 0 2-.5 3-1 2-2.75 3.25-4.75 3.75-1.75.5-3.5.25-5.25-.25-1.75-.5-3.25-1.5-4.5-2.75-2-2-3-4.75-2.75-7.5.25-3 1.25-5.75 3-8.25 2-2.75 4.75-4.75 8-5.75 3.25-1 6.75-1 10-.25 4.5 1 8.25 3.75 10.5 7.75 1.75 3.25 2.5 6.75 2 10.5-.5 3.5-1.75 6.75-3.75 9.75-2.75 3.75-6.5 6.75-10.75 8.75-3.25 1.5-6.5 2.25-10.25 2.5h-5.75c-5-.25-9.5-1.5-14-3.25-9-3.75-16.25-10-21.25-18.25-2.25-3.75-4-7.75-4.5-12-.5-3.75-.25-7.5.5-11.25 1-5 3-9.75 6-14 3.25-4.5 7-8.5 11.5-11.75 5.75-4.25 12-7.25 19-9.25 6-1.75 12.25-2.75 18.5-3 2.75 0 5.75 0 8.5.5 5 .5 9.75 2 14 4.5 8 4.25 13.25 10.75 15.5 19.25 1 4 1.5 8.25 1 12.5-.75 7-3.25 13.25-7 19-4.25 6.25-9.75 11-16 15.25-5.25 3.5-11 6.25-17 8.5-8.5 3-17.25 4.5-26.25 4.75-9.5.25-18.75-1.25-27.5-5-7.75-3.25-14.75-7.75-20.5-13.75-4-4.5-7.25-9.75-9.25-15.5-1-3-1.5-6.5-1.75-9.75v-3.75c0-1.25.25-2.5.25-3.75.5-2.25.75-4.25 1.25-6.5.5-1.75 1-3.5 1.75-5.25.75-1.75 1.5-3.5 2.5-5.25 1.75-3.25 4-6.25 6.25-9 3-3.5 6.25-6.5 10-9.25 11-8.5 23.5-14.5 36.75-18.25 12-3.5 24.25-5.25 36.75-5.5.5 0 1-.25 1.5-.25 13 0 25.75 1.75 38.25 4.75 13.75 3.5 26.5 9 38.5 16.75 4 2.5 7.75 5.5 11.25 8.5 5.75 5 11 10.5 15.75 16.25 7.25 9 13 19 17.5 29.5 3.25 7.5 5.75 15.25 7.75 23.25 1.5 6 2.75 12 3.5 18.25.75 5.5 1 11 1.25 16.5V365c0 1.75 0 3.25-.25 5-.25 1-.25 2-.25 3 0 2.5-1 5-3 7z"/>
</svg>
