<?xml version="1.0" encoding="UTF-8" standalone="no"?>
<svg xmlns="http://www.w3.org/2000/svg" viewBox="0 0 128 128">
  <path fill="#130754" d="M48.697 98.045c-13.206 0-26.411-2.1-35.817-6.533l4.617-10.072c8.574 2.799 19.531 4.743 31.2 4.743 11.931 0 23.088-2 31.409-5.332 7.919-3.193 12.597-7.356 12.597-11.748 0-4.508-2.956-8.555-12.435-11.885l9.012-6.684c14.37 5.33 20.645 13.07 20.645 21.373 0 7.012-5.232 13.438-14.755 18.645-9.549 5.211-22.653 7.493-36.473 7.493z"/>
  <path fill="#ffca00" d="M48.697 77.084c-12.081 0-24.108-1.861-32.682-5.56-4.773-2.094-10.044-5.47-10.044-11.967 0-6.169 5.08-9.754 10.672-12.003 5.369-2.163 11.224-3.354 16.979-4.106 7.434-.971 15.633-1.45 23.134-1.45 7.456 0 14.863.411 22.311 1.349 8.302 1.033 16.576 2.78 22.978 6.744 3.319 2.053 6.119 4.743 6.119 8.535 0 7.255-9.341 11.285-14.488 13.39-10.754 4.441-23.696 5.068-34.875 5.068h-10.104zm17.746-28.362c-7.438 0-14.866.411-22.202 1.348-5.8.742-11.872 2.03-16.353 4.497-2.14 1.181-5.299 3.309-5.299 6.189 0 1.242.785 3.626 5.304 5.168 7.863 2.693 18.204 4.508 29.454 4.508h10.104c10.544 0 22.255-.76 31.546-4.508 3.329-1.334 10.713-3.929 10.713-8.354 0-1.553-1.533-2.868-2.983-3.743-5.668-3.429-13.314-4.577-20.38-5.469-6.746-.747-13.416-1.136-19.904-1.136z"/>
  <path fill="#ffca00" d="m62.267 48.722-26.315-7.361v8.685l26.315 7.361v-8.685zm-10.63 17.37-15.685-4.31v8.876l15.686 4.309V66.092z"/>
  <path fill="#130754" d="M48.647 95.419h-.008c-12.131 0-24.827-1.898-34.522-6.162l-3.481-1.528 2.063-4.362 3.479 1.528c9.405 4.126 21.746 5.897 32.461 5.897h.008c9.835 0 20.07-1.299 27.683-4.275 6.358-2.498 10.325-6.019 10.325-9.12a2.73 2.73 0 0 0-.045-.53l-.334-1.859 1.8-.72.331 1.86a5.8 5.8 0 0 1 .086 1.249c0 4.571-4.452 9.047-12.918 12.308-8.089 3.173-19.3 4.714-26.928 4.714z"/>
  <path fill="#130754" d="m62.267 51.044-23.856-6.595-.74-.205v3.8l24.597 6.882v-3.882zm0 22.056-14.455-3.984-.245-.069v4.066l14.7 4.038v-4.051z"/>
</svg>
