<?xml version="1.0" encoding="UTF-8" standalone="no"?>
<svg xmlns="http://www.w3.org/2000/svg" viewBox="0 0 432.071 445.383">
  <path fill="#336791" d="M216.29 445.383c-79.543 0-140.023-19.123-152.358-47.095h-.665V423.414c0 .607.051 1.214.153 1.77.561 9.811 4.079 18.876 10.649 26.775 6.622 7.899 16.38 14.521 28.826 19.58C126.146 483.133 159.06 490 216.29 490c57.177 0 90.039-6.918 113.396-18.46 11.729-5.807 21.642-12.475 28.467-20.53 6.775-8.003 10.438-17.273 11.048-27.288.052-.506.102-1.063.102-1.62v-24.714h-.307c-12.232 27.767-73.02 47.995-152.707 47.995"/>
  <path fill="#fff" d="M366.442 398.288h.307v-30.227c0-22.358-25.475-41.85-63.852-53.313-27.862-8.308-63.899-12.902-101.538-12.902-37.691 0-73.728 4.594-101.538 12.902-38.428 11.462-63.903 30.903-63.903 53.313v29.816h.665c12.335-27.973 72.815-47.095 152.358-47.095 79.687 0 140.475 20.227 152.707 47.995M93.918 335.915h-.051c-.92.153-.205.307-.307.46.102-.204.205-.307.358-.46"/>
  <path fill="#fff" d="M367.36 368.059V163.928c0-22.409-25.475-41.85-63.903-53.363-27.86-8.259-63.95-12.853-101.64-12.853-37.64 0-73.729 4.594-101.538 12.853-38.428 11.513-63.903 30.954-63.903 53.363v204.08c0 22.358 25.475 41.9 63.903 53.312 27.81 8.31 63.898 12.853 101.538 12.853 37.69 0 73.78-4.543 101.64-12.853 38.428-11.411 63.903-30.954 63.903-53.312"/>
  <path fill="#336791" d="M288.177 55.523c-3.979-1.215-8.208.921-9.42 4.747l-20.329 63.494h-18.468l21.386-66.76a7.604 7.604 0 0 0-4.897-9.596c-3.98-1.266-8.209.87-9.422 4.696L225.66 123.764h-18.416l21.387-66.76a7.604 7.604 0 0 0-4.901-9.596c-3.979-1.266-8.207.87-9.419 4.696l-21.387 66.76h-18.468l21.387-66.76a7.604 7.604 0 0 0-4.9-9.596c-3.98-1.266-8.208.87-9.42 4.696l-21.387 66.76h-12.9c-4.18 0-7.594 3.369-7.594 7.497 0 4.175 3.415 7.544 7.594 7.544h8.003l-28.213 87.904H98.052c-4.183 0-7.596 3.368-7.596 7.542 0 4.13 3.413 7.5 7.596 7.5h8.003l-21.386 66.758a7.601 7.601 0 0 0 4.849 9.596c.766.254 1.579.358 2.342.358 3.213 0 6.218-2.025 7.125-5.105l20.328-63.494h18.468l-21.386 66.758a7.601 7.601 0 0 0 4.898 9.597c.767.256 1.577.36 2.342.36 3.21 0 6.22-2.027 7.127-5.108l20.33-63.495h18.466l-21.387 66.76a7.603 7.603 0 0 0 4.9 9.596c.767.255 1.58.358 2.345.358 3.21 0 6.217-2.025 7.126-5.105l20.328-63.496h18.467l-21.386 66.76a7.605 7.605 0 0 0 4.9 9.596c.766.254 1.578.357 2.342.357 3.213 0 6.22-2.024 7.125-5.105l20.33-63.495h12.898c4.18 0 7.597-3.368 7.597-7.5 0-4.173-3.416-7.545-7.597-7.545h-8.002l28.214-87.904h27.197c4.182 0 7.594-3.368 7.594-7.543 0-4.13-3.412-7.498-7.594-7.498h-8.003l21.387-66.758c1.214-3.827-.922-7.956-4.9-9.17zm-53.854 154.664h-18.468l28.214-87.903h18.467l-28.214 87.903"/>
</svg>
