<?xml version="1.0" encoding="UTF-8" standalone="no"?>
<svg xmlns="http://www.w3.org/2000/svg" viewBox="0 0 110.8 92.6">
  <path d="M40.6 51.8V79l-15.1-8.5V45.7l13.9 6.9 1.2-.8zM42.4 79V51.8l16.3-9.1v27.2L42.4 79zm14.5-48.4L42.4 39l-15.1-8.5 14.5-8.4 15.1 8.5z" fill="#ee4c2c"/>
  <path d="M73.5 33.7V51l-12.7 7.5v17.8l12.7 7.4 9.4-5.3V59.6l3.3-1.9v-6.5L74.5 41.6v-7.9h-1zM97.2 65.5v7.1l-9.4 5.2V70l9.4-5.2v.7zm-9.4 14.5l9.4-5.2v7.1l-9.4 5.2v-7.1z" fill="#ee4c2c"/>
  <path d="M88.9 74.5l-4.8 2.6v-7.1l4.8-2.6v7.1zm0 12.3l-4.8 2.6v-7.1l4.8-2.6v7.1z" fill="#fff"/>
</svg>
