<?xml version="1.0" encoding="UTF-8"?>
<svg xmlns="http://www.w3.org/2000/svg" viewBox="0 0 512 512">
  <g fill="#61DAFB">
    <circle cx="256" cy="256" r="37.5"/>
    <path d="M256 144.5c-61.8 0-112 25.8-112 61s50.2 61 112 61 112-25.8 112-61-50.2-61-112-61zm0 106.8c-51.2 0-92.8-20.4-92.8-45.8s41.6-45.8 92.8-45.8 92.8 20.4 92.8 45.8-41.5 45.8-92.8 45.8z"/>
    <path d="M256 144.5c-61.8 0-112 25.8-112 61s50.2 61 112 61 112-25.8 112-61-50.2-61-112-61zm0 106.8c-51.2 0-92.8-20.4-92.8-45.8s41.6-45.8 92.8-45.8 92.8 20.4 92.8 45.8-41.5 45.8-92.8 45.8z" transform="rotate(60 256 256)"/>
    <path d="M256 144.5c-61.8 0-112 25.8-112 61s50.2 61 112 61 112-25.8 112-61-50.2-61-112-61zm0 106.8c-51.2 0-92.8-20.4-92.8-45.8s41.6-45.8 92.8-45.8 92.8 20.4 92.8 45.8-41.5 45.8-92.8 45.8z" transform="rotate(120 256 256)"/>
  </g>
</svg>
