<?xml version="1.0" encoding="utf-8"?>
<svg viewBox="0 0 115 115" xmlns="http://www.w3.org/2000/svg">
  <path fill="#e25a1c" d="M40.28 39.28l4.503 4.503-9.006 9.006-4.503-4.503L40.28 39.28zm-4.95 24.302l3.064 3.065 19.879-19.879-3.064-3.065-19.88 19.88zm59.947-29.281c-2.85-2.849-7.125-2.849-9.975 0l-2.87 2.87 9.975 9.976 2.87-2.87c2.849-2.85 2.849-7.127 0-9.976zm-38.956 23.17l29.982-29.98 9.975 9.974-29.983 29.982-9.975 0v-9.975z"/>
  <path fill="#e25a1c" d="M57.5 115C25.804 115 0 89.197 0 57.5S25.804 0 57.5 0 115 25.804 115 57.5 89.196 115 57.5 115zm0-106.25c-26.833 0-48.75 21.917-48.75 48.75S30.667 106.25 57.5 106.25s48.75-21.917 48.75-48.75S84.333 8.75 57.5 8.75z"/>
</svg>
