<?xml version="1.0" encoding="UTF-8"?>
<svg xmlns="http://www.w3.org/2000/svg" viewBox="0 0 640 512">
  <path fill="#38B2AC" d="M414.7 86.6c-48.5 0-79.3 37.7-89.9 94.4-4.2 22.5-4.8 44.8-4.8 70.4 0-25.5-.5-47.9-4.7-70.4-10.6-56.7-41.4-94.4-89.9-94.4-39.5 0-75.7 31.4-75.7 78.9 0 37.1 25.7 64.1 60.7 64.1 29 0 49-19.5 49-45.6 0-17.7-12.3-32.9-32-32.9-14.3 0-24.1 9.7-27.8 23.6-.8 2.8-1 5.9-1 9.1h-17.5c0-23.3 17.8-49.2 51.6-49.2 36.9 0 55.3 28.2 55.3 55.3 0 41.1-29.8 62.4-55.3 62.4-31.4 0-55.6-21.3-55.6-55.9 0-35.2 26.2-59.4 52.8-69.8-1.4-10.4-10.8-28.7-34.9-28.7-42.4 0-70.4 40.7-70.4 80.3 0 54.1 38.3 90.3 85 90.3 47.4 0 81.3-36.8 91.2-93.1 3.7-21.4 4.3-44.5 4.3-70.7 0 26.2.6 49.3 4.3 70.7 9.9 56.4 43.8 93.1 91.2 93.1 46.7 0 85-36.2 85-90.3 0-39.6-28-80.3-70.4-80.3-24.1 0-33.5 18.3-34.9 28.7 26.6 10.4 52.8 34.6 52.8 69.8 0 34.6-24.2 55.9-55.6 55.9-25.5 0-55.3-21.3-55.3-62.4 0-27.2 18.4-55.3 55.3-55.3 33.8 0 51.6 25.9 51.6 49.2h-17.5c0-3.1-.2-6.3-1-9.1-3.7-13.9-13.5-23.6-27.8-23.6-19.7 0-32 15.2-32 32.9 0 26.1 20 45.6 49 45.6 35 0 60.7-27 60.7-64.1 0-47.5-36.2-78.9-75.7-78.9z"/>
</svg>
